<?xml version="1.0" encoding="UTF-8" standalone="no" ?>
<!DOCTYPE svg PUBLIC "-//W3C//DTD SVG 1.1//EN" "http://www.w3.org/Graphics/SVG/1.1/DTD/svg11.dtd">
<svg xmlns="http://www.w3.org/2000/svg" xmlns:xlink="http://www.w3.org/1999/xlink" version="1.1" width="1080" height="1080" viewBox="0 0 1080 1080" xml:space="preserve">
<desc>Created with Fabric.js 5.2.4</desc>
<defs>
</defs>
<rect x="0" y="0" width="100%" height="100%" fill="transparent"></rect>
<g transform="matrix(1 0 0 1 540 540)" id="be2bf5cd-f921-41b4-b4c1-641fa7143ad1"  >
<rect style="stroke: none; stroke-width: 1; stroke-dasharray: none; stroke-linecap: butt; stroke-dashoffset: 0; stroke-linejoin: miter; stroke-miterlimit: 4; fill: rgb(255,255,255); fill-rule: nonzero; opacity: 1; visibility: hidden;" vector-effect="non-scaling-stroke"  x="-540" y="-540" rx="0" ry="0" width="1080" height="1080" />
</g>
<g transform="matrix(1 0 0 1 540 540)" id="02ef9b6b-a89c-4b5c-a882-2e35c31aa341"  >
</g>
<g transform="matrix(15.13 0 0 15.13 539.29 539.29)" id="3beecfe7-07bb-479a-bbc0-894d4f60aa74"  >
<circle style="stroke: rgb(0,0,0); stroke-width: 0; stroke-dasharray: none; stroke-linecap: butt; stroke-dashoffset: 0; stroke-linejoin: miter; stroke-miterlimit: 4; fill: rgb(255,255,255); fill-rule: nonzero; opacity: 1;" vector-effect="non-scaling-stroke"  cx="0" cy="0" r="35" />
</g>
<g transform="matrix(2.03 0 0 2.03 540 540)"  >
<g style="" vector-effect="non-scaling-stroke"   >
		<g transform="matrix(1 0 0 1 5.81 -65.6)"  >
<path style="stroke: none; stroke-width: 1; stroke-dasharray: none; stroke-linecap: butt; stroke-dashoffset: 0; stroke-linejoin: miter; stroke-miterlimit: 4; fill: rgb(0,0,0); fill-rule: nonzero; opacity: 1;" vector-effect="non-scaling-stroke"  transform=" translate(-165.55, -143.35)" d="M 112.697845 149.346054 C 123.818283 156.550995 136.203476 159.460114 148.354538 162.938782 C 170.755081 169.351669 193.667694 174.082794 215.267349 183.11911 C 228.746353 188.758102 241.449066 195.646072 250.80603 207.350601 C 261.062317 220.180099 265.107452 235.320374 266.988983 251.253616 C 267.310089 253.973007 266.060516 255.324936 263.480316 255.661255 C 255.340225 256.722229 247.184143 256.064819 239.03801 255.798553 C 236.780823 255.724777 236.115921 253.896713 235.921204 251.922592 C 234.095688 233.414902 223.344559 221.659195 207.153214 214.127319 C 189.986618 206.1418 171.540085 202.182831 153.392731 197.303268 C 139.893188 193.673462 126.379654 190.11293 113.271294 185.177628 C 69.289742 168.618484 51.713341 124.338196 73.237991 82.28273 C 87.741982 53.944427 112.166039 37.974453 142.974121 32.353485 C 188.709869 24.008953 229.317963 43.589069 250.04895 80.245911 C 257.347412 93.151161 259.922424 107.325897 261.013062 121.877884 C 261.249695 125.035583 259.841187 126.397331 256.602631 126.332352 C 249.108139 126.181976 241.608704 126.148911 234.11319 126.234703 C 230.711807 126.273636 229.078629 125.136162 228.570328 121.492134 C 226.801315 108.810326 223.315826 96.733551 214.679047 86.752258 C 201.893555 71.976364 185.678177 64.344063 166.235641 63.249786 C 147.891266 62.217316 130.957672 66.254059 116.91214 78.444489 C 101.168037 92.109138 95.385254 109.655235 99.524307 130.157562 C 101.136612 138.14389 105.684151 144.456924 112.697845 149.346054 z" stroke-linecap="round" />
</g>
		<g transform="matrix(1 0 0 1 -0.43 99.24)"  >
<path style="stroke: none; stroke-width: 1; stroke-dasharray: none; stroke-linecap: butt; stroke-dashoffset: 0; stroke-linejoin: miter; stroke-miterlimit: 4; fill: rgb(0,0,0); fill-rule: nonzero; opacity: 1;" vector-effect="non-scaling-stroke"  transform=" translate(-159.31, -308.19)" d="M 103.842224 328.1539 C 136.971222 369.415161 212.892029 362.592133 234.02356 306.761322 C 235.062347 304.016724 236.707581 302.850403 239.625717 302.902771 C 246.788498 303.031464 253.955246 302.92923 261.118774 303.032288 C 266.345062 303.107483 266.888824 303.878021 265.544983 309.097656 C 254.609039 351.573822 225.847015 375.995178 184.413803 384.715424 C 142.964783 393.438934 106.922791 381.195892 78.524879 349.222321 C 63.679314 332.507538 56.412151 312.232391 53.772636 290.234131 C 51.536694 271.599335 52.142895 253.054703 55.644936 234.580139 C 56.412868 230.529007 58.171967 228.84082 62.261204 228.936966 C 69.755371 229.113159 77.25692 228.950607 84.75338 229.063263 C 90.106873 229.143738 90.35939 229.724747 89.145386 235.036118 C 83.713921 258.799316 82.66494 282.470917 91.026726 305.867554 C 93.912285 313.941467 98.256706 321.208618 103.842224 328.1539 z" stroke-linecap="round" />
</g>
</g>
</g>
</svg>