<svg version="1.1" id="Layer_1" xmlns="http://www.w3.org/2000/svg" xmlns:xlink="http://www.w3.org/1999/xlink" x="0px" y="0px"
	 width="100%" viewBox="0 0 320 416" enable-background="new 0 0 320 416" xml:space="preserve">
<path fill="#000000" opacity="1.000000" stroke="none" 
	d="
M112.697845,149.346054 
	C123.818283,156.550995 136.203476,159.460114 148.354538,162.938782 
	C170.755081,169.351669 193.667694,174.082794 215.267349,183.119110 
	C228.746353,188.758102 241.449066,195.646072 250.806030,207.350601 
	C261.062317,220.180099 265.107452,235.320374 266.988983,251.253616 
	C267.310089,253.973007 266.060516,255.324936 263.480316,255.661255 
	C255.340225,256.722229 247.184143,256.064819 239.038010,255.798553 
	C236.780823,255.724777 236.115921,253.896713 235.921204,251.922592 
	C234.095688,233.414902 223.344559,221.659195 207.153214,214.127319 
	C189.986618,206.141800 171.540085,202.182831 153.392731,197.303268 
	C139.893188,193.673462 126.379654,190.112930 113.271294,185.177628 
	C69.289742,168.618484 51.713341,124.338196 73.237991,82.282730 
	C87.741982,53.944427 112.166039,37.974453 142.974121,32.353485 
	C188.709869,24.008953 229.317963,43.589069 250.048950,80.245911 
	C257.347412,93.151161 259.922424,107.325897 261.013062,121.877884 
	C261.249695,125.035583 259.841187,126.397331 256.602631,126.332352 
	C249.108139,126.181976 241.608704,126.148911 234.113190,126.234703 
	C230.711807,126.273636 229.078629,125.136162 228.570328,121.492134 
	C226.801315,108.810326 223.315826,96.733551 214.679047,86.752258 
	C201.893555,71.976364 185.678177,64.344063 166.235641,63.249786 
	C147.891266,62.217316 130.957672,66.254059 116.912140,78.444489 
	C101.168037,92.109138 95.385254,109.655235 99.524307,130.157562 
	C101.136612,138.143890 105.684151,144.456924 112.697845,149.346054 
z"/>
<path fill="#000000" opacity="1.000000" stroke="none" 
	d="
M103.842224,328.153900 
	C136.971222,369.415161 212.892029,362.592133 234.023560,306.761322 
	C235.062347,304.016724 236.707581,302.850403 239.625717,302.902771 
	C246.788498,303.031464 253.955246,302.929230 261.118774,303.032288 
	C266.345062,303.107483 266.888824,303.878021 265.544983,309.097656 
	C254.609039,351.573822 225.847015,375.995178 184.413803,384.715424 
	C142.964783,393.438934 106.922791,381.195892 78.524879,349.222321 
	C63.679314,332.507538 56.412151,312.232391 53.772636,290.234131 
	C51.536694,271.599335 52.142895,253.054703 55.644936,234.580139 
	C56.412868,230.529007 58.171967,228.840820 62.261204,228.936966 
	C69.755371,229.113159 77.256920,228.950607 84.753380,229.063263 
	C90.106873,229.143738 90.359390,229.724747 89.145386,235.036118 
	C83.713921,258.799316 82.664940,282.470917 91.026726,305.867554 
	C93.912285,313.941467 98.256706,321.208618 103.842224,328.153900 
z"/>
</svg>