<?xml version="1.0"?>
<svg width="320" height="416" xmlns="http://www.w3.org/2000/svg" xmlns:svg="http://www.w3.org/2000/svg" enable-background="new 0 0 320 416" version="1.1" xml:space="preserve">
 <g class="layer">
  <title>Layer 1</title>
  <ellipse cx="160.5" cy="206.5" fill="#f7f7f7" id="svg_8" rx="400" ry="400" stroke="#000000" transform="matrix(1 0 0 1 0 0)"/>
  <path d="m112.7,149.35c11.12,7.2 23.5,10.11 35.65,13.59c22.41,6.41 45.32,11.14 66.92,20.18c13.48,5.64 26.18,12.53 35.54,24.23c10.25,12.83 14.3,27.97 16.18,43.9c0.32,2.72 -0.93,4.07 -3.51,4.41c-8.14,1.06 -16.3,0.4 -24.44,0.14c-2.26,-0.08 -2.92,-1.9 -3.12,-3.88c-1.82,-18.51 -12.58,-30.26 -28.77,-37.79c-17.16,-7.99 -35.61,-11.95 -53.76,-16.83c-13.5,-3.63 -27.01,-7.19 -40.12,-12.12c-43.98,-16.56 -61.56,-60.84 -40.03,-102.9c14.5,-28.34 38.93,-44.31 69.73,-49.93c45.74,-8.34 86.35,11.24 107.08,47.9c7.3,12.9 9.87,27.08 10.96,41.63c0.24,3.16 -1.17,4.52 -4.41,4.45c-7.49,-0.15 -14.99,-0.18 -22.49,-0.1c-3.4,0.04 -5.03,-1.09 -5.54,-4.74c-1.77,-12.68 -5.25,-24.76 -13.89,-34.74c-12.79,-14.77 -29,-22.41 -48.44,-23.5c-18.35,-1.03 -35.28,3 -49.33,15.19c-15.74,13.67 -21.52,31.22 -17.39,51.72c1.62,7.98 6.16,14.3 13.18,19.19z" fill="#000000" id="svg_1" opacity="1"/>
  <path d="m103.84,328.15c33.13,41.27 109.05,34.44 130.18,-21.39c1.04,-2.74 2.69,-3.91 5.61,-3.86c7.16,0.13 14.33,0.03 21.49,0.13c5.23,0.08 5.77,0.85 4.42,6.07c-10.93,42.47 -39.69,66.9 -81.13,75.62c-41.45,8.72 -77.49,-3.52 -105.89,-35.5c-14.84,-16.71 -22.11,-36.99 -24.75,-58.99c-2.23,-18.63 -1.63,-37.18 1.87,-55.65c0.77,-4.05 2.53,-5.74 6.62,-5.64c7.5,0.17 15,0.01 22.49,0.12c5.36,0.08 5.61,0.66 4.4,5.98c-5.44,23.76 -6.49,47.43 1.88,70.83c2.88,8.07 7.23,15.34 12.81,22.28z" fill="#000000" id="svg_2" opacity="1"/>
 </g>
</svg>